<?xml version="1.0" encoding="utf-8"?>
<!-- Generator: Adobe Illustrator 27.4.1, SVG Export Plug-In . SVG Version: 6.00 Build 0)  -->
<svg version="1.1" xmlns="http://www.w3.org/2000/svg" xmlns:xlink="http://www.w3.org/1999/xlink" x="0px" y="0px"
	 viewBox="0 0 1478 167.8" style="enable-background:new 0 0 1478 167.8;" xml:space="preserve">
<style type="text/css">
	.st0{clip-path:url(#SVGID_00000088125341897633714050000015450669689575641233_);}
	.st1{fill:#F8AD3B;}
	.st2{fill:#DD8126;}
	.st3{fill:#F7931E;}
	.st4{fill:#801214;}
	.st5{fill:#883620;}
	.st6{fill:#8ABF52;}
	.st7{fill:#FFC844;}
	.st8{fill:#CE0E2D;}
	.st9{fill:#F1802C;}
	.st10{fill:#F6C52E;}
	.st11{fill:#9CCC65;}
	.st12{fill:#519D68;}
	.st13{fill:#433D3B;}
	.st14{fill:#F9D86C;}
	.st15{fill:#FFFFFF;}
	.st16{fill:#E4DED9;}
	.st17{fill:#D89235;}
	.st18{clip-path:url(#SVGID_00000081638645666761724400000013525908726759477901_);}
	.st19{fill:#BCB9B7;}
	.st20{fill:#F2F2F2;}
	.st21{fill:#881814;}
	.st22{fill:#F6A234;}
	.st23{fill:#94111F;}
	.st24{fill:#ECECEC;}
	.st25{fill:#E1142F;}
	.st26{fill:#6ACBDB;}
</style>
<g id="Layer_1">
	<g>
		<defs>
			<rect id="SVGID_1_" width="1478" height="168"/>
		</defs>
		<clipPath id="SVGID_00000098912738551252922400000004922266703760381575_">
			<use xlink:href="#SVGID_1_"  style="overflow:visible;"/>
		</clipPath>
		<g style="clip-path:url(#SVGID_00000098912738551252922400000004922266703760381575_);">
			<g>
				<path class="st1" d="M1007.3,134.2c8.7,0,15.7-4.3,16.6-9.9h0.1V34.5h-33.3v89.9h0.1C991.6,129.9,998.7,134.2,1007.3,134.2
					L1007.3,134.2z"/>
			</g>
			<g>
				<path class="st2" d="M1024,45.1c0,0-4.1,40-34.5,51.5v42.7h34.9L1024,45.1z"/>
			</g>
			<g>
				<path class="st3" d="M1023.3,34.5c0,2.7-1.7,5.2-4.6,7.1c-2.9,1.9-6.9,3.1-11.4,3.1c-4.5,0-8.5-1.2-11.4-3.1
					c-2.9-1.9-4.6-4.4-4.6-7.1s1.7-5.2,4.6-7.1c2.9-1.9,6.9-3.1,11.4-3.1c4.5,0,8.5,1.2,11.4,3.1
					C1021.6,29.2,1023.3,31.8,1023.3,34.5z"/>
				<path class="st4" d="M1007.3,45.4c-4.4,0-8.6-1.1-11.8-3.2c-3.1-2.1-4.9-4.8-4.9-7.7s1.7-5.7,4.9-7.7c3.1-2.1,7.3-3.2,11.8-3.2
					c4.4,0,8.6,1.1,11.8,3.2c3.1,2.1,4.9,4.8,4.9,7.7s-1.7,5.7-4.9,7.7C1016,44.3,1011.8,45.4,1007.3,45.4z M1007.3,25
					c-4.2,0-8.1,1.1-11,3c-2.7,1.8-4.2,4.1-4.2,6.5s1.5,4.8,4.2,6.5c2.9,1.9,6.8,3,11,3s8.1-1.1,11-3c2.7-1.8,4.2-4.1,4.2-6.5
					s-1.5-4.8-4.2-6.5C1015.4,26,1011.5,25,1007.3,25z"/>
			</g>
			<g>
				<path class="st5" d="M1010.8,128.4c-1.7,0-3-1.3-3-3s1.3-3,3-3c2.9,0,5.4-3.5,5.4-7.7c0-1.7,1.3-3,3-3s3,1.3,3,3
					C1022.2,122.3,1017.1,128.4,1010.8,128.4z"/>
			</g>
			<g>
				<path class="st4" d="M1005.2,36c-3.4,0-6.2-1.5-6.7-3.5c-0.1-0.6-0.2-2,2-3c2-0.9,4.1-1.2,6.8-1.1c6.1,0.4,6.7,2.9,6.7,3.6
					c0.1,1.2-0.9,2.3-2.3,2.5c-0.4,0.1-0.7-0.2-0.8-0.6c-0.1-0.4,0.2-0.7,0.6-0.8c0.7-0.1,1.2-0.6,1.1-1c0-0.9-1.8-2.1-5.4-2.3
					c-2.4-0.2-4.3,0.1-6.1,0.9c-0.5,0.2-1.4,0.8-1.2,1.5c0.2,1,2.2,2.4,5.3,2.4c0.4,0,0.7,0.3,0.7,0.7S1005.6,36,1005.2,36z"/>
			</g>
			<g>
				<path class="st4" d="M1007,41.2c-7.2,0-12.8-3-12.8-6.9c0-0.4,0.3-0.7,0.7-0.7s0.7,0.3,0.7,0.7c0,3,5.2,5.5,11.4,5.5
					c6.2,0,11.4-2.5,11.4-5.5c0-0.4,0.3-0.7,0.7-0.7s0.7,0.3,0.7,0.7C1019.9,38.1,1014.2,41.2,1007,41.2z"/>
			</g>
			<g>
				<path class="st1" d="M983.1,155.1c8.7,0,15.7-4.3,16.6-9.9h0.1V55.4h-33.3v89.9h0.1C967.3,150.8,974.4,155.1,983.1,155.1
					L983.1,155.1z"/>
			</g>
			<g>
				<path class="st3" d="M999.7,66c0,0-4.1,40-34.5,51.5v42.7h34.9L999.7,66z"/>
			</g>
			<g>
				<path class="st3" d="M999,55.4c0,2.7-1.7,5.2-4.6,7.1c-2.9,1.9-6.9,3.1-11.4,3.1s-8.5-1.2-11.4-3.1c-2.9-1.9-4.6-4.4-4.6-7.1
					s1.7-5.2,4.6-7.1c2.9-1.9,6.9-3.1,11.4-3.1s8.5,1.2,11.4,3.1C997.3,50.2,999,52.7,999,55.4z"/>
				<path class="st4" d="M983.1,66.3c-4.4,0-8.6-1.1-11.8-3.2c-3.1-2.1-4.9-4.8-4.9-7.7c0-2.9,1.7-5.7,4.9-7.7
					c3.1-2.1,7.3-3.2,11.8-3.2s8.6,1.1,11.8,3.2c3.1,2.1,4.9,4.8,4.9,7.7c0,2.9-1.7,5.7-4.9,7.7C991.7,65.2,987.5,66.3,983.1,66.3z
					 M983.1,45.9c-4.2,0-8.1,1.1-11,3c-2.7,1.8-4.2,4.1-4.2,6.5c0,2.4,1.5,4.8,4.2,6.6c2.9,1.9,6.8,3,11,3c4.2,0,8.1-1.1,11-3
					c2.7-1.8,4.2-4.1,4.2-6.6c0-2.4-1.5-4.8-4.2-6.5C991.2,46.9,987.2,45.9,983.1,45.9z"/>
			</g>
			<g>
				<path class="st4" d="M980.9,57c-3.4,0-6.2-1.5-6.7-3.5c-0.1-0.6-0.2-2,2-3c2-0.9,4.1-1.2,6.8-1.1c6.1,0.4,6.7,2.9,6.7,3.6
					c0.1,1.2-0.9,2.3-2.3,2.5c-0.4,0.1-0.7-0.2-0.8-0.6s0.2-0.7,0.6-0.8c0.7-0.1,1.2-0.6,1.1-1c0-0.9-1.8-2.1-5.4-2.3
					c-2.4-0.2-4.3,0.1-6.1,0.9c-0.5,0.2-1.4,0.8-1.2,1.5c0.2,1,2.2,2.4,5.3,2.4c0.4,0,0.7,0.3,0.7,0.7S981.3,57,980.9,57z"/>
			</g>
			<g>
				<path class="st4" d="M982.8,62.1c-7.2,0-12.8-3-12.8-6.9c0-0.4,0.3-0.7,0.7-0.7s0.7,0.3,0.7,0.7c0,3,5.2,5.5,11.4,5.5
					s11.4-2.5,11.4-5.5c0-0.4,0.3-0.7,0.7-0.7s0.7,0.3,0.7,0.7C995.6,59.1,990,62.1,982.8,62.1z"/>
			</g>
			<g>
				<path class="st1" d="M1014.5,172.7c8.7,0,15.8-4.3,16.6-9.9h0.1V73h-33.3v89.9h0.1C998.7,168.4,1005.8,172.7,1014.5,172.7
					L1014.5,172.7z"/>
			</g>
			<g>
				<path class="st3" d="M1031.1,83.6c0,0-4.1,40-34.5,51.5v42.7h34.9L1031.1,83.6L1031.1,83.6z"/>
			</g>
			<g>
				<path class="st3" d="M1030.4,73c0,2.7-1.7,5.2-4.6,7.1c-2.9,1.9-6.9,3.1-11.4,3.1c-4.5,0-8.5-1.2-11.4-3.1
					c-2.9-1.9-4.6-4.4-4.6-7.1s1.7-5.2,4.6-7.1c2.9-1.9,6.9-3.1,11.4-3.1c4.5,0,8.5,1.2,11.4,3.1C1028.7,67.8,1030.4,70.3,1030.4,73
					z"/>
				<path class="st4" d="M1014.5,83.9c-4.4,0-8.6-1.1-11.8-3.2c-3.1-2.1-4.9-4.8-4.9-7.7s1.7-5.7,4.9-7.7c3.1-2.1,7.3-3.2,11.8-3.2
					s8.6,1.1,11.8,3.2c3.1,2.1,4.9,4.8,4.9,7.7s-1.7,5.7-4.9,7.7C1023.1,82.8,1018.9,83.9,1014.5,83.9z M1014.5,63.5
					c-4.2,0-8.1,1.1-11,3c-2.7,1.8-4.2,4.1-4.2,6.5s1.5,4.8,4.2,6.5c2.9,1.9,6.8,3,11,3s8.1-1.1,11-3c2.7-1.8,4.2-4.1,4.2-6.6
					s-1.5-4.8-4.2-6.5C1022.6,64.5,1018.7,63.5,1014.5,63.5z"/>
			</g>
			<g>
				<path class="st4" d="M1012.3,74.6c-3.4,0-6.2-1.5-6.7-3.5c-0.1-0.6-0.2-2,2-3c2-0.9,4.1-1.2,6.8-1.1c6.1,0.4,6.7,2.9,6.7,3.6
					c0.1,1.2-0.9,2.3-2.3,2.5c-0.4,0.1-0.7-0.2-0.8-0.6c-0.1-0.4,0.2-0.7,0.6-0.8c0.7-0.1,1.2-0.6,1.1-1c0-0.9-1.8-2.1-5.4-2.3
					c-2.4-0.2-4.3,0.1-6.1,0.9c-0.5,0.2-1.4,0.8-1.2,1.5c0.2,1,2.2,2.4,5.3,2.4c0.4,0,0.7,0.3,0.7,0.7S1012.7,74.6,1012.3,74.6z"/>
			</g>
			<g>
				<path class="st4" d="M1014.2,79.7c-7.2,0-12.8-3-12.8-6.9c0-0.4,0.3-0.7,0.7-0.7s0.7,0.3,0.7,0.7c0,3,5.2,5.5,11.4,5.5
					c6.2,0,11.4-2.5,11.4-5.5c0-0.4,0.3-0.7,0.7-0.7s0.7,0.3,0.7,0.7C1027,76.7,1021.4,79.7,1014.2,79.7z"/>
			</g>
			<g>
				<path class="st6" d="M1433.8,168.8h-366.1c0.2-0.1,0.3-0.2,0.5-0.3c13.4-7.5,24.9-15,35.7-21.9c35.5-22.8,63.4-40.7,122.5-41.6
					c1.6,0,3.2,0,4.8,0c0.3,0,0.6,0,0.9,0c2.5,0,5,0.1,7.5,0.2C1318,108.9,1395.6,161.9,1433.8,168.8z"/>
			</g>
			<g>
				<path class="st7" d="M1421.4,39.8c-0.2,0-0.3,0-0.5-0.1c-1.1-0.3-1.7-1.4-1.4-2.4c1-4.1,5.5-11.7,15.1-11.7c0,0,0,0,0,0
					c1.1,0,2,0.9,2,2s-0.9,2-2,2c0,0,0,0,0,0c0,0,0,0,0,0c-8.9,0-11.2,8.6-11.2,8.7C1423.2,39.2,1422.3,39.8,1421.4,39.8z"/>
			</g>
			<g>
				<path class="st8" d="M1429.1,96.6C1429.1,96.6,1429,96.6,1429.1,96.6C1429,96.6,1429.1,96.6,1429.1,96.6L1429.1,96.6
					L1429.1,96.6z"/>
				<polygon points="1429.3,97 1428.9,96.8 1428.3,96.3 1428.9,96.3 1429.3,94.2 1429.3,96.8 1429.3,96.8 				"/>
			</g>
			<g>
				<path class="st9" d="M1429.2,96.9c-2,2.3-1.7,5.8,0.8,7.7l4.3,3.4c0,0,3.1-4.6-0.7-7.7L1429.2,96.9L1429.2,96.9z"/>
				<path d="M1434.3,108.4l-4.5-3.6c-1.2-1-2-2.4-2.1-3.9c-0.1-1.5,0.3-2.9,1.3-4.1v-0.4l4.8,3.8c4,3.2,0.8,8,0.8,8L1434.3,108.4z
					 M1429.3,97.2c-0.8,1-1.2,2.3-1.1,3.6c0.1,1.4,0.8,2.6,1.9,3.5l4.1,3.3c0.6-1,2.4-4.6-0.8-7.1L1429.3,97.2z"/>
			</g>
			<g>
				<path class="st9" d="M1429.2,96.9c2-2.3,5.6-2.6,8-0.7l4.3,3.4c0,0-4.2,3.8-8,0.7L1429.2,96.9L1429.2,96.9z"/>
				<path d="M1436.8,101.8c-1.1,0-2.3-0.3-3.4-1.2l-4.9-3.9h0.6c2.1-2.3,5.8-2.6,8.3-0.7l4.6,3.6l-0.2,0.2
					C1441.7,99.8,1439.5,101.8,1436.8,101.8z M1429.6,96.9l4.1,3.3c3.2,2.5,6.5,0.2,7.5-0.5l-4.1-3.2
					C1434.8,94.6,1431.5,94.8,1429.6,96.9z"/>
			</g>
			<g>
				<path class="st10" d="M1418.9,108c8.2,1.6,13.6,9,12.6,16.8c-0.1,0.6-0.7,0.9-1.2,0.8l-14.2-2.7c-7.9-1.5-13.8-8.3-13.2-15.9
					c0.5-6.6,5.1-11.7,11.1-13.5c2.4-1,6.6-0.6,7.8-0.4c2.8,0.5,5.4,1.8,7.4,3.5l0,0c-6.2,0.3-10.9,5.4-10.5,11.4"/>
			</g>
			<g>
				<path class="st9" d="M1404.2,102.2c2.4,5.3,8.7,7.8,14.4,5.7c-5.3-2.8-7.2-9.4-4.5-14.5l-0.3,0.1c-4.9,0.3-9.2,3.3-9.8,8
					L1404.2,102.2L1404.2,102.2z"/>
				<path d="M1414.5,108.9c-4.4,0-8.6-2.5-10.5-6.6l-0.3-0.8l0-0.1c0.6-4.5,4.8-7.8,10-8.2l0.9-0.3l-0.3,0.6c-1.3,2.5-1.6,5.3-0.7,8
					c0.8,2.7,2.7,4.9,5.1,6.2l0.5,0.3l-0.5,0.2C1417.3,108.7,1415.9,108.9,1414.5,108.9z M1404.4,102.1c2.3,5,8.1,7.5,13.5,5.8
					c-2.3-1.4-4.1-3.6-4.9-6.2c-0.8-2.6-0.6-5.4,0.5-7.9c-4.9,0.4-8.8,3.5-9.4,7.7L1404.4,102.1z"/>
			</g>
			<g>
				<path class="st9" d="M1412.6,122.2c5.5-2.4,8.3-8.9,6-14.3c-2.6,5.3-9.2,7.9-15,5.1c0,0,0.6,3.2,3.1,5.6
					C1408.9,120.9,1412.6,122.2,1412.6,122.2L1412.6,122.2z"/>
				<path d="M1412.6,122.5L1412.6,122.5c-0.2-0.1-3.8-1.4-6.1-3.6c-2.6-2.5-3.2-5.6-3.2-5.8l-0.1-0.5l0.4,0.2
					c5.5,2.6,12.1,0.4,14.7-5l0.2-0.5l0.2,0.5c1.1,2.6,1.1,5.5,0.1,8.2C1417.7,118.9,1415.5,121.2,1412.6,122.5L1412.6,122.5z
					 M1403.9,113.5c0.3,1,1.1,3.2,2.9,5c2,1.9,5.2,3.2,5.7,3.4c2.6-1.2,4.8-3.4,5.8-6.1c1-2.4,1-5,0.1-7.3
					C1415.7,113.7,1409.4,115.8,1403.9,113.5z"/>
			</g>
			<g>
				<path d="M1430.4,125.9c-0.1,0-0.2,0-0.2,0l-14.2-2.7c-8.2-1.6-14-8.5-13.4-16.2c0.5-6.4,4.9-11.8,11.3-13.7
					c2.6-1.1,7-0.6,7.9-0.4c2.7,0.5,5.3,1.7,7.4,3.5l0.3,0l-0.2,0.7l-0.3-0.2c-2.9,0.2-5.6,1.5-7.5,3.6c-1.8,2.1-2.8,4.7-2.6,7.4
					l-0.5,0c-0.2-2.9,0.8-5.6,2.7-7.8c1.9-2.1,4.5-3.4,7.3-3.8c-1.9-1.5-4.3-2.6-6.7-3c-1.2-0.2-5.3-0.6-7.7,0.4
					c-6.2,1.9-10.5,7.1-10.9,13.3c-0.5,7.4,5.1,14.1,13,15.7l14.2,2.7c0.2,0,0.5,0,0.7-0.2c0.2-0.1,0.3-0.3,0.3-0.5
					c1.1-7.7-4.4-15-12.3-16.5l0.1-0.5c8.3,1.6,13.9,9.1,12.8,17.1c0,0.3-0.2,0.6-0.5,0.8C1431,125.8,1430.7,125.9,1430.4,125.9z"/>
			</g>
			<g>
				<path class="st9" d="M1424,121.4c0.4,0,0.8-0.3,0.8-0.8c0-0.4-0.4-0.8-0.8-0.8c-0.4,0-0.8,0.3-0.8,0.8
					C1423.2,121.1,1423.5,121.4,1424,121.4z"/>
				<path d="M1424,121.7c-0.6,0-1-0.5-1-1c0-0.6,0.5-1,1-1c0.6,0,1.1,0.5,1.1,1C1425,121.2,1424.5,121.7,1424,121.7z M1424,120.1
					c-0.3,0-0.5,0.2-0.5,0.5s0.2,0.5,0.5,0.5c0.3,0,0.6-0.2,0.6-0.5S1424.3,120.1,1424,120.1z"/>
			</g>
			<g>
				<path d="M1422.4,96.5C1422.4,96.5,1422.4,96.5,1422.4,96.5c-0.6-0.2-1.2-0.3-1.7-0.4c-0.8-0.2-1.7-0.2-2.5-0.2c0,0,0,0,0,0
					c-0.1,0-0.2-0.1-0.2-0.2s0.1-0.3,0.2-0.3c0.9,0,1.8,0.1,2.6,0.2c0.6,0.1,1.2,0.3,1.7,0.4c0.1,0,0.2,0.2,0.2,0.3
					C1422.6,96.5,1422.5,96.5,1422.4,96.5z"/>
			</g>
			<g>
				<path class="st11" d="M1464.5,60.9l-3.1,5.2c-0.6,0.9-1.8,1.1-2.6,0.4l-0.8-0.7l-2.6-2.3c-0.5-0.5-1.1-0.9-1.8-1.1
					c-0.3-0.1-0.6-0.2-0.9-0.4v0c-1.5-0.5-3.1-0.7-4.8-0.6l-10.5,0.7c1.4-0.1,2.8-0.8,3.5-2.2c0.8-1.4,0.7-3.1-0.1-4.4
					c0.4-0.3,0.8-0.6,1.1-0.9l7,0.6l-4.1-6.7c0-0.1,0-0.2,0-0.2c1.6,0.1,3.1-0.7,3.9-2.1c0.8-1.3,0.7-2.8,0.1-4l4.9,9.4
					c0.1,0.2,0.2,0.4,0.3,0.6c0.8,1.4,2,2.7,3.3,3.7c0.6,0.4,1.2,0.7,1.9,1l0.2,0.1l4.1,1.5C1464.6,58.8,1465.1,60,1464.5,60.9
					L1464.5,60.9z"/>
				<path d="M1460,67.2c-0.5,0-0.9-0.2-1.3-0.5l-0.8-0.7l-2.6-2.3c-0.6-0.5-1.1-0.8-1.7-1.1c-0.3-0.1-0.6-0.2-0.8-0.3l-0.2-0.1
					c-1.4-0.4-2.9-0.6-4.6-0.5l-10.5,0.7c0,0,0,0,0,0h0c0,0,0,0,0,0l0-0.5l0,0c1.4-0.1,2.6-0.8,3.3-2c0.7-1.3,0.7-2.9-0.1-4.2
					l-0.1-0.2l0.2-0.1c0.4-0.2,0.8-0.5,1.1-0.8l0.1-0.1l6.7,0.6l-3.9-6.3l0-0.1c0,0,0-0.1,0-0.1l0-0.3l0.2,0c1.5,0.1,3-0.7,3.7-2
					c0.7-1.2,0.7-2.6,0.1-3.8l0.4-0.2l4.9,9.4c0.1,0.2,0.2,0.4,0.3,0.5c0.8,1.4,1.9,2.6,3.3,3.6c0.6,0.4,1.2,0.7,1.8,0.9l0.2,0.1
					l4.1,1.5c0.6,0.2,1,0.6,1.2,1.2c0.2,0.4,0.1,0.9,0,1.4l0,0l-0.1,0.3l-3.1,5.2c-0.3,0.5-0.8,0.8-1.4,0.9
					C1460.2,67.2,1460.1,67.2,1460,67.2z M1453,62c0.3,0.1,0.5,0.2,0.8,0.3c0.6,0.3,1.2,0.7,1.8,1.2l3.4,2.9
					c0.3,0.3,0.8,0.4,1.2,0.3c0.4-0.1,0.8-0.3,1-0.7l2.9-5l0,0l0.2-0.3c0.2-0.4,0.3-0.8,0.1-1.2c-0.1-0.4-0.5-0.7-0.9-0.9l-4.3-1.6
					c-0.7-0.2-1.3-0.6-1.9-1c-1.4-1-2.6-2.3-3.4-3.7c-0.1-0.2-0.2-0.4-0.3-0.6l-3.9-7.6c0,0.8-0.2,1.5-0.6,2.2
					c-0.8,1.4-2.2,2.3-3.8,2.3l4.3,6.9l-7.4-0.6c-0.3,0.2-0.6,0.5-0.9,0.7c0.8,1.4,0.8,3.1,0,4.5c-0.4,0.7-0.9,1.2-1.6,1.6l8.4-0.5
					c1.8-0.1,3.4,0.1,4.9,0.6L1453,62z"/>
			</g>
			<g>
				<path class="st12" d="M1441,60.1c0.8-1.4,0.7-3.1-0.2-4.4c0.9-0.6,1.7-1.4,2.4-2.3c0,0,0-0.1,0.1-0.1c0.2-0.2,0.3-0.5,0.5-0.7h0
					c0.1-0.3,0.3-0.5,0.4-0.8c0,0,0-0.1,0-0.1c0.5-1,0.7-2.1,0.7-3.2c1.6,0.1,3.1-0.7,3.9-2.1c0.8-1.3,0.7-2.8,0.1-4v0
					c0.9-0.4,1.6-1.1,2.2-2c1.3-2.3,0.5-5.2-1.8-6.6c-2.3-1.3-5.2-0.5-6.6,1.8c-2.6-0.3-5.3,0.9-6.7,3.4c0,0-0.1,0.1-0.1,0.1
					c-2.3,0-4.6,0.9-6.3,2.5c-0.4,0.4-0.8,0.8-1.2,1.3c0,0,0,0.1-0.1,0.1c-0.2,0.2-0.3,0.5-0.5,0.7h0c-0.1,0.3-0.3,0.5-0.4,0.8
					c0,0,0,0.1-0.1,0.1c-0.2,0.5-0.4,1.1-0.6,1.6c-0.5,2.2-0.1,4.5,1,6.4l0.1,0.2c0,0-0.1,0.1-0.1,0.1c-1.4,2.4-1.1,5.4,0.5,7.5
					c-1.3,2.3-0.5,5.2,1.8,6.5c2.3,1.3,5.3,0.5,6.6-1.8c0.5-0.9,0.7-1.9,0.6-2.9C1438.9,62.2,1440.2,61.4,1441,60.1L1441,60.1z"/>
				<path d="M1432.6,67.8c-0.8,0-1.7-0.2-2.5-0.7c-2.4-1.3-3.2-4.3-2-6.7c-1.7-2.2-1.8-5.2-0.4-7.6c0,0,0,0,0,0l0-0.1
					c-1.1-2-1.5-4.3-1-6.6c0.1-0.5,0.3-1.1,0.6-1.7c0-0.1,0-0.1,0-0.1l0.1-0.2c0.1-0.2,0.2-0.4,0.3-0.6l0.1-0.1
					c0.1-0.2,0.3-0.4,0.4-0.6l0.1-0.1c0.4-0.5,0.8-1,1.2-1.3c1.7-1.6,3.9-2.5,6.3-2.5c0,0,0,0,0,0c1.4-2.4,4-3.8,6.8-3.5
					c1.4-2.3,4.5-3,6.8-1.7c1.2,0.7,2,1.7,2.4,3c0.4,1.3,0.2,2.7-0.5,3.9c-0.5,0.8-1.2,1.5-2,2c0.6,1.3,0.5,2.8-0.2,4.1
					c-0.8,1.4-2.3,2.3-3.9,2.3c-0.1,1.1-0.3,2.1-0.7,3.1c0,0.1,0,0.1-0.1,0.2l0,0.1c-0.1,0.2-0.2,0.4-0.3,0.6l-0.1,0.1
					c-0.1,0.2-0.2,0.4-0.4,0.6c0,0.1-0.1,0.1-0.1,0.1c-0.6,0.8-1.4,1.6-2.2,2.2c0.8,1.4,0.8,3.1,0,4.5l-0.1,0.1
					c-0.7,1.2-2,2-3.4,2.1c0.1,1-0.2,1.9-0.7,2.8C1436.2,66.9,1434.4,67.8,1432.6,67.8z M1428,43.9c-0.1,0.2-0.2,0.3-0.2,0.5
					l-0.1,0.2c0,0,0,0.1-0.1,0.1c-0.2,0.6-0.4,1.1-0.5,1.6c-0.5,2.1-0.1,4.4,1,6.2l0.2,0.4l-0.2,0.2c-1.3,2.3-1.1,5.1,0.5,7.2
					l0.1,0.1l-0.1,0.1c-1.2,2.2-0.4,4.9,1.7,6.2c2.2,1.2,5,0.5,6.3-1.7c0.5-0.8,0.7-1.8,0.6-2.7l0-0.3l0.3,0c1.4-0.1,2.6-0.8,3.3-2
					l0.1-0.1c0.7-1.3,0.6-2.8-0.2-4l-0.1-0.2l0.2-0.1c0.9-0.6,1.7-1.3,2.3-2.2c0,0,0,0,0-0.1l0-0.1c0.1-0.2,0.3-0.4,0.4-0.6l0.1-0.1
					c0.1-0.2,0.2-0.3,0.2-0.5l0.1-0.2c0,0,0-0.1,0-0.1c0.4-1,0.7-2,0.7-3.1l0-0.3l0.3,0c1.5,0.1,3-0.7,3.7-2
					c0.7-1.2,0.7-2.6,0.1-3.8l0-0.1v-0.2l0.1-0.1c0.9-0.4,1.6-1.1,2-1.9c0.6-1.1,0.8-2.3,0.4-3.5c-0.3-1.2-1.1-2.1-2.2-2.7
					c-2.2-1.2-5-0.5-6.2,1.7l-0.1,0.1l-0.2,0c-2.6-0.3-5.2,1-6.5,3.3l0,0.1c0,0,0,0.1-0.1,0.1l-0.1,0.1h-0.1c-2.3,0-4.4,0.9-6.1,2.4
					c-0.4,0.4-0.8,0.8-1.1,1.3c0,0,0,0.1-0.1,0.1c-0.2,0.2-0.3,0.4-0.4,0.7L1428,43.9z"/>
			</g>
			<g>
				<path class="st11" d="M1306.1,109.5l5.1,3.3c0.9,0.6,2.1,0.2,2.5-0.8l0.4-1l1.3-3.2c0.3-0.6,0.6-1.3,1.1-1.8
					c0.2-0.3,0.4-0.5,0.6-0.7v0c1.1-1.2,2.5-2,4-2.7l9.6-4.2c-1.3,0.6-2.8,0.5-4.1-0.3c-1.4-0.9-2-2.5-1.9-4
					c-0.5-0.1-0.9-0.1-1.4-0.3l-6,3.7l0.6-7.8c-0.1-0.1-0.1-0.1-0.1-0.2c-1.3,0.8-3.1,0.8-4.5-0.1c-1.3-0.8-1.9-2.2-1.9-3.5
					l-0.1,10.6c0,0.2,0,0.4,0,0.6c-0.1,1.7-0.5,3.3-1.3,4.8c-0.3,0.6-0.7,1.2-1.2,1.7l-0.1,0.2l-3,3.2
					C1305,107.6,1305.2,108.9,1306.1,109.5L1306.1,109.5z"/>
				<path d="M1312.1,113.2c-0.4,0-0.7-0.1-1-0.3l-5.5-3.5l0.1,0c-0.3-0.3-0.5-0.7-0.5-1.1c-0.1-0.6,0.1-1.2,0.5-1.6l3.1-3.4
					c0.5-0.5,0.9-1.1,1.2-1.6c0.7-1.5,1.2-3,1.3-4.7c0-0.2,0-0.4,0-0.6l0-10.6l0.5,0c0,1.4,0.7,2.6,1.8,3.3c1.3,0.8,2.9,0.9,4.2,0.1
					l0.2-0.1l0.1,0.2c0,0,0.1,0.1,0.1,0.1c0,0,0,0,0,0.1l0.1,0.1l-0.6,7.4l5.7-3.5l0.1,0c0.4,0.1,0.9,0.2,1.4,0.3l0.2,0l0,0.2
					c-0.2,1.5,0.5,3,1.8,3.8c1.1,0.7,2.6,0.9,3.8,0.3l0,0l0.2,0.5c0,0,0,0,0,0l-9.6,4.1c-1.6,0.7-2.9,1.5-3.9,2.6l-0.1,0.1
					c-0.2,0.2-0.4,0.5-0.6,0.7c-0.4,0.5-0.7,1.1-1,1.8l-1.7,4.2c-0.2,0.5-0.7,0.9-1.2,1.1C1312.5,113.2,1312.3,113.2,1312.1,113.2z
					 M1306.6,109.5l4.7,3c0.4,0.2,0.8,0.3,1.2,0.1c0.4-0.1,0.7-0.4,0.9-0.8l0.4-1l1.3-3.2c0.3-0.8,0.7-1.4,1.1-1.9
					c0.2-0.2,0.4-0.5,0.6-0.7v0l0.1-0.1c1.1-1.1,2.4-2,4.1-2.7l7.7-3.3c-0.8,0-1.5-0.3-2.2-0.7c-1.3-0.9-2.1-2.4-2-4
					c-0.4-0.1-0.7-0.1-1.1-0.2l-6.3,3.9l0.6-8.1c-1.4,0.7-3.1,0.6-4.5-0.3c-0.7-0.4-1.2-1-1.5-1.7l0,8.5c0,0.2,0,0.4,0,0.7
					c-0.1,1.7-0.5,3.3-1.3,4.9c-0.3,0.6-0.7,1.2-1.2,1.8l-0.2,0.2l-3,3.2c-0.3,0.3-0.4,0.8-0.4,1.2c0.1,0.4,0.3,0.8,0.7,1
					L1306.6,109.5L1306.6,109.5z"/>
			</g>
			<g>
				<path class="st12" d="M1326.7,98c-1.4-0.9-2.1-2.5-1.9-4c-1.1-0.1-2.1-0.4-3.2-0.9c0,0-0.1,0-0.1,0c-0.2-0.1-0.5-0.3-0.7-0.4h0
					c-0.2-0.2-0.5-0.3-0.7-0.5c0,0-0.1,0-0.1-0.1c-0.9-0.7-1.6-1.6-2.1-2.5c-1.3,0.8-3.1,0.8-4.5-0.1c-1.3-0.8-1.9-2.2-1.9-3.5v0
					c-1,0-1.9-0.2-2.8-0.8c-2.2-1.5-2.9-4.4-1.4-6.7c1.5-2.2,4.4-2.8,6.7-1.4c2.2-1.5,5.2-1.6,7.6,0c0,0,0.1,0.1,0.1,0.1
					c2.1-1.1,4.5-1.3,6.7-0.7c0.6,0.2,1.1,0.4,1.6,0.6c0,0,0.1,0,0.1,0.1c0.2,0.1,0.5,0.3,0.7,0.4h0c0.2,0.2,0.5,0.3,0.7,0.5
					c0,0,0.1,0.1,0.1,0.1c0.5,0.4,0.9,0.8,1.2,1.2c1.4,1.7,2.2,4,2.1,6.2l0,0.2c0,0,0.1,0,0.1,0.1c2.4,1.5,3.5,4.3,3,6.9
					c2.2,1.5,2.8,4.4,1.3,6.6c-1.5,2.2-4.5,2.8-6.7,1.4c-0.9-0.6-1.5-1.4-1.8-2.3C1329.5,98.9,1327.9,98.8,1326.7,98L1326.7,98z"/>
				<path d="M1335.2,101.7c-1,0-1.9-0.3-2.8-0.8c-0.8-0.6-1.5-1.3-1.8-2.2c-1.4,0.5-2.9,0.4-4.1-0.4l-0.7-0.5h0.1
					c-1-0.9-1.5-2.2-1.4-3.5c-1.1-0.1-2.1-0.5-3-0.9l-0.1,0c-0.3-0.1-0.5-0.3-0.7-0.4l0,0c-0.2-0.1-0.4-0.3-0.7-0.5
					c0,0-0.1-0.1-0.1-0.1c-0.8-0.7-1.5-1.5-2.1-2.4c-1.5,0.7-3.2,0.6-4.5-0.3c-1.2-0.8-2-2.1-2-3.5c-1,0-1.9-0.3-2.7-0.8
					c-1.1-0.7-1.9-1.9-2.2-3.2c-0.3-1.3,0-2.7,0.7-3.8c1.5-2.3,4.5-3,6.9-1.6c2.4-1.5,5.4-1.5,7.7,0l0,0c2.1-1,4.5-1.2,6.8-0.6
					c0.6,0.2,1.2,0.4,1.7,0.6l0.1,0.1c0.2,0.1,0.5,0.2,0.7,0.4l0.1,0c0.3,0.2,0.5,0.3,0.7,0.5l0.1,0.1c0.4,0.4,0.9,0.8,1.3,1.2
					c1.5,1.8,2.2,4,2.1,6.3l0,0.1c0,0,0,0,0,0c2.3,1.5,3.5,4.2,3.1,7c2.2,1.6,2.8,4.6,1.3,6.9
					C1338.5,100.9,1336.9,101.7,1335.2,101.7z M1330.9,98l0.1,0.2c0.3,0.9,0.9,1.6,1.7,2.2c2.1,1.4,5,0.8,6.4-1.3
					c1.4-2.1,0.8-4.9-1.3-6.3l-0.1-0.1l0-0.2c0.5-2.6-0.6-5.2-2.9-6.6l-0.1-0.1l-0.2-0.1l0-0.4c0.1-2.2-0.6-4.3-2-6
					c-0.4-0.4-0.8-0.8-1.2-1.2l-0.1-0.1c-0.2-0.2-0.4-0.3-0.6-0.4h0l-0.1,0c-0.2-0.2-0.5-0.3-0.7-0.4c0,0-0.1,0-0.2-0.1
					c-0.4-0.2-1-0.4-1.5-0.6c-2.2-0.6-4.5-0.4-6.5,0.6l-0.1,0.1l-0.2-0.2c-2.2-1.4-5-1.4-7.3,0.1l-0.1,0.1l-0.1-0.1
					c-2.2-1.3-4.9-0.8-6.3,1.3c-0.7,1-0.9,2.2-0.7,3.4c0.2,1.2,1,2.2,2,2.9c0.8,0.5,1.7,0.8,2.7,0.7l0.3,0v0.3
					c0,1.4,0.7,2.6,1.8,3.3c1.3,0.8,2.9,0.9,4.2,0.1l0.2-0.1l0.1,0.2c0.5,1,1.2,1.8,2.1,2.5L1320,92l0.2-0.2
					c0.3,0.2,0.4,0.3,0.6,0.5h0l0.1,0c0.2,0.1,0.4,0.3,0.7,0.4c0,0,0.1,0,0.1,0.1c0.9,0.5,2,0.8,3,0.9l0.2,0l0,0.2
					c-0.2,1.5,0.5,2.9,1.8,3.8l0.2,0.2c1.1,0.6,2.4,0.7,3.6,0.1L1330.9,98z"/>
			</g>
			<g>
				<path class="st8" d="M1356.3,79.3C1356.3,79.3,1356.4,79.3,1356.3,79.3C1356.4,79.3,1356.4,79.3,1356.3,79.3L1356.3,79.3
					L1356.3,79.3z"/>
				<polygon points="1356.1,81.7 1356.1,79 1356.1,79 1356.2,78.9 1356.6,79.1 1357.2,79.5 1356.6,79.5 				"/>
			</g>
			<g>
				<path class="st9" d="M1356.2,79c2-2.3,1.7-5.8-0.8-7.7l-4.3-3.4c0,0-3.1,4.6,0.7,7.7L1356.2,79L1356.2,79z"/>
				<path d="M1356.5,79.5l-4.8-3.8c-4-3.2-0.8-8-0.8-8l0.2-0.2l4.5,3.6c1.2,1,2,2.4,2.1,3.9c0.1,1.5-0.3,2.9-1.3,4.1V79.5z
					 M1351.2,68.2c-0.6,1-2.4,4.6,0.8,7.1l4.2,3.3c0.8-1,1.2-2.3,1.1-3.6c-0.1-1.4-0.8-2.6-1.9-3.5L1351.2,68.2z"/>
			</g>
			<g>
				<path class="st9" d="M1356.2,79c-2,2.3-5.6,2.6-8,0.7l-4.3-3.4c0,0,4.1-3.8,8-0.7L1356.2,79L1356.2,79z"/>
				<path d="M1351.8,81.2c-1.3,0-2.7-0.4-3.8-1.3l-4.5-3.6l0.2-0.2c0,0,4.4-3.9,8.3-0.7l4.9,3.9h-0.6
					C1355.2,80.5,1353.5,81.2,1351.8,81.2z M1344.3,76.2l4.1,3.3c2.2,1.8,5.6,1.6,7.5-0.5l-4.1-3.3
					C1348.5,73.2,1345.2,75.5,1344.3,76.2z"/>
			</g>
			<g>
				<path class="st10" d="M1366.5,67.9c-8.2-1.6-13.6-9-12.5-16.8c0.1-0.6,0.7-0.9,1.2-0.8l14.2,2.7c7.9,1.5,13.8,8.3,13.2,15.9
					c-0.5,6.6-5.1,11.7-11.1,13.5c-2.4,1-6.5,0.6-7.8,0.4c-2.9-0.5-5.4-1.8-7.4-3.5l0,0c6.2-0.3,10.9-5.4,10.5-11.4"/>
			</g>
			<g>
				<path class="st9" d="M1381.2,73.7c-2.4-5.3-8.7-7.8-14.4-5.7c5.3,2.8,7.2,9.4,4.5,14.5l0.3-0.1c4.9-0.3,9.2-3.3,9.8-8
					L1381.2,73.7L1381.2,73.7z"/>
				<path d="M1370.8,82.9l0.3-0.6c1.3-2.5,1.6-5.3,0.7-8c-0.8-2.7-2.6-4.9-5.1-6.2l-0.5-0.3l0.5-0.2c5.8-2.2,12.2,0.4,14.7,5.9l0,0
					l0.3,0.8l0,0.1c-0.6,4.5-4.7,7.8-10,8.2L1370.8,82.9z M1367.5,68c2.4,1.4,4.1,3.6,4.9,6.2c0.8,2.6,0.6,5.4-0.5,7.9
					c4.9-0.4,8.8-3.5,9.4-7.7l-0.2-0.7C1378.7,68.7,1372.9,66.3,1367.5,68z"/>
			</g>
			<g>
				<path class="st9" d="M1372.9,53.6c-5.5,2.4-8.3,8.9-6,14.3c2.6-5.3,9.2-7.9,15-5.1c0,0-0.6-3.2-3.1-5.6
					C1376.5,54.9,1372.9,53.6,1372.9,53.6z"/>
				<path d="M1366.9,68.5l-0.2-0.5c-1.1-2.6-1.1-5.5-0.1-8.2c1.1-2.9,3.4-5.2,6.2-6.4l0.1,0l0.1,0c0.2,0.1,3.7,1.3,6,3.5
					c2.6,2.5,3.2,5.6,3.2,5.8l0.1,0.5l-0.4-0.2c-5.5-2.6-12.1-0.4-14.7,5L1366.9,68.5z M1372.9,53.9c-2.6,1.2-4.8,3.4-5.8,6.1
					c-1,2.4-1,5-0.1,7.3c2.8-5.1,9.2-7.3,14.6-5c-0.3-1-1.1-3.2-2.9-5C1376.6,55.4,1373.4,54.1,1372.9,53.9z"/>
			</g>
			<g>
				<path d="M1367.2,83.3c-1.5,0-2.9-0.2-3.5-0.3c-2.7-0.5-5.3-1.7-7.4-3.5l-0.4,0l0.3-0.7l0.2,0.2c2.9-0.2,5.6-1.5,7.5-3.6
					c1.8-2.1,2.8-4.7,2.6-7.4l0.5,0c0.2,2.9-0.8,5.6-2.7,7.8c-1.9,2.1-4.5,3.4-7.3,3.8c1.9,1.5,4.3,2.6,6.8,3
					c1.2,0.2,5.3,0.6,7.6-0.4c6.2-1.9,10.5-7.1,10.9-13.3c0.5-7.4-5.1-14.1-13-15.7l-14.2-2.7c-0.2,0-0.5,0-0.7,0.2
					c-0.2,0.1-0.3,0.3-0.3,0.5c-1.1,7.7,4.4,15,12.3,16.5l-0.1,0.5c-8.3-1.6-13.9-9.1-12.8-17.1c0-0.3,0.2-0.6,0.5-0.8
					c0.3-0.2,0.7-0.3,1.1-0.2l14.2,2.7c8.2,1.6,14,8.5,13.4,16.2c-0.5,6.4-4.9,11.8-11.3,13.7C1370.4,83.1,1368.7,83.3,1367.2,83.3z
					"/>
			</g>
			<g>
				<path class="st9" d="M1361.5,56c0.4,0,0.8-0.3,0.8-0.8c0-0.4-0.4-0.8-0.8-0.8c-0.4,0-0.8,0.3-0.8,0.8
					C1360.7,55.6,1361,56,1361.5,56z"/>
				<path d="M1361.5,56.2c-0.6,0-1.1-0.5-1.1-1c0-0.6,0.5-1,1.1-1c0.6,0,1.1,0.5,1.1,1C1362.5,55.8,1362.1,56.2,1361.5,56.2z
					 M1361.5,54.7c-0.3,0-0.6,0.2-0.6,0.5s0.3,0.5,0.6,0.5c0.3,0,0.6-0.2,0.6-0.5S1361.8,54.7,1361.5,54.7z"/>
			</g>
			<g>
				<path d="M1367.2,80.5c-0.8,0-1.7-0.1-2.5-0.2c-0.6-0.1-1.2-0.3-1.7-0.4c-0.1,0-0.2-0.2-0.2-0.3c0-0.1,0.2-0.2,0.3-0.2
					c0.5,0.2,1.1,0.3,1.6,0.4c0.8,0.2,1.7,0.2,2.5,0.2c0,0,0,0,0,0c0.1,0,0.2,0.1,0.2,0.2s-0.1,0.3-0.2,0.3
					C1367.2,80.5,1367.2,80.5,1367.2,80.5z"/>
			</g>
			<g>
				<path class="st8" d="M1410.5,39.9C1410.5,39.9,1410.5,39.9,1410.5,39.9C1410.5,39.9,1410.5,39.9,1410.5,39.9L1410.5,39.9
					L1410.5,39.9z"/>
				<polygon points="1410.8,42.4 1410.3,40.2 1409.7,40.2 1410.6,39.5 1410.7,39.7 1410.8,39.7 				"/>
			</g>
			<g>
				<path class="st9" d="M1410.7,39.6c-2-2.3-1.7-5.8,0.8-7.7l4.3-3.4c0,0,3.1,4.6-0.7,7.7L1410.7,39.6L1410.7,39.6z"/>
				<path d="M1410.4,40.1v-0.4c-1-1.2-1.4-2.6-1.3-4.1c0.1-1.5,0.9-2.9,2.1-3.9l4.5-3.6l0.2,0.2c0,0,3.2,4.8-0.8,8L1410.4,40.1z
					 M1415.7,28.9l-4.1,3.3c-1.1,0.9-1.8,2.2-1.9,3.5c-0.1,1.3,0.3,2.6,1.1,3.6l4.2-3.3C1418.1,33.4,1416.2,29.8,1415.7,28.9z"/>
			</g>
			<g>
				<path class="st9" d="M1410.7,39.6c2,2.3,5.6,2.6,8,0.7l4.3-3.4c0,0-4.2-3.8-8-0.7L1410.7,39.6L1410.7,39.6z"/>
				<path d="M1415.1,41.8c-1.7,0-3.3-0.7-4.5-2h-0.6l4.9-3.9c4-3.1,8.3,0.7,8.3,0.7l0.2,0.2l-4.6,3.6
					C1417.7,41.4,1416.4,41.8,1415.1,41.8z M1411,39.6c2,2,5.3,2.3,7.5,0.5l4.1-3.2c-0.9-0.7-4.3-3.1-7.5-0.5L1411,39.6z"/>
			</g>
			<g>
				<path class="st10" d="M1400.4,28.5c8.2-1.6,13.6-9,12.5-16.8c-0.1-0.6-0.7-0.9-1.2-0.8l-14.2,2.7c-7.9,1.5-13.8,8.3-13.2,15.9
					c0.5,6.6,5.1,11.7,11.1,13.5c2.4,1,6.5,0.6,7.8,0.4c2.9-0.6,5.4-1.8,7.4-3.5l0,0c-6.2-0.3-10.9-5.4-10.5-11.4"/>
			</g>
			<g>
				<path class="st9" d="M1385.7,34.3c2.4-5.3,8.7-7.8,14.4-5.7c-5.3,2.8-7.2,9.4-4.5,14.5l-0.3-0.1c-4.9-0.3-9.2-3.3-9.8-8
					L1385.7,34.3L1385.7,34.3z"/>
				<path d="M1396,43.6l-0.9-0.3c-5.3-0.4-9.4-3.7-10-8.2l0-0.1l0.3-0.8c2.4-5.4,8.9-8,14.7-5.9l0.5,0.2l-0.5,0.3
					c-2.5,1.3-4.3,3.5-5.1,6.2c-0.8,2.7-0.6,5.5,0.7,8L1396,43.6z M1385.7,35.1c0.6,4.1,4.5,7.3,9.4,7.7c-1.2-2.5-1.3-5.2-0.5-7.9
					c0.8-2.6,2.5-4.8,4.9-6.2c-5.4-1.7-11.2,0.7-13.5,5.8L1385.7,35.1z"/>
			</g>
			<g>
				<path class="st9" d="M1394,14.3c5.5,2.4,8.4,8.9,6,14.3c-2.6-5.3-9.2-7.9-15-5.1c0,0,0.6-3.2,3.1-5.6
					C1390.4,15.6,1394,14.3,1394,14.3L1394,14.3z"/>
				<path d="M1400,29.2l-0.2-0.5c-2.6-5.4-9.2-7.7-14.7-5l-0.4,0.2l0.1-0.5c0-0.1,0.6-3.3,3.2-5.8c2.3-2.2,5.8-3.5,6-3.5l0.1,0
					l0.1,0c2.8,1.2,5.1,3.5,6.2,6.4c1.1,2.7,1.1,5.6-0.1,8.2L1400,29.2z M1389.9,22.1c4.1,0,8,2.2,10.1,5.9c0.9-2.3,0.8-4.9-0.1-7.3
					c-1.1-2.7-3.2-4.9-5.8-6.1c-0.6,0.2-3.7,1.5-5.7,3.4c-1.9,1.8-2.7,4.1-2.9,5C1386.8,22.4,1388.4,22.1,1389.9,22.1z"/>
			</g>
			<g>
				<path d="M1399.7,43.9c-1.5,0-3.2-0.2-4.5-0.7c-6.4-1.9-10.8-7.3-11.3-13.7c-0.6-7.6,5.2-14.6,13.4-16.2l14.2-2.7
					c0.4-0.1,0.8,0,1.1,0.2c0.3,0.2,0.4,0.5,0.5,0.8c1.1,8-4.5,15.5-12.8,17.1l-0.1-0.5c8-1.5,13.4-8.8,12.3-16.5
					c0-0.2-0.1-0.3-0.3-0.5c-0.2-0.1-0.4-0.2-0.7-0.2l-14.2,2.7c-8,1.5-13.6,8.3-13,15.7c0.5,6.2,4.7,11.4,10.9,13.3
					c2.4,1,6.5,0.6,7.7,0.4c2.5-0.5,4.8-1.5,6.7-3c-2.9-0.3-5.5-1.6-7.3-3.8c-1.9-2.2-2.9-4.9-2.7-7.8l0.5,0
					c-0.2,2.7,0.8,5.4,2.6,7.4c1.9,2.2,4.6,3.4,7.5,3.6l0.3-0.3l0.2,0.7l-0.3,0c-2.1,1.7-4.6,3-7.4,3.5
					C1402.6,43.8,1401.2,43.9,1399.7,43.9z"/>
			</g>
			<g>
				<path class="st9" d="M1405.4,16.6c0.4,0,0.8-0.3,0.8-0.8c0-0.4-0.4-0.8-0.8-0.8c-0.4,0-0.8,0.3-0.8,0.8
					C1404.6,16.3,1405,16.6,1405.4,16.6z"/>
				<path d="M1405.4,16.9c-0.6,0-1.1-0.5-1.1-1c0-0.6,0.5-1,1.1-1c0.6,0,1,0.5,1,1C1406.5,16.4,1406,16.9,1405.4,16.9z M1405.4,15.3
					c-0.3,0-0.6,0.2-0.6,0.5c0,0.3,0.3,0.5,0.6,0.5c0.3,0,0.5-0.2,0.5-0.5C1406,15.6,1405.7,15.3,1405.4,15.3z"/>
			</g>
			<g>
				<path d="M1399.7,41.1c0,0-0.1,0-0.1,0c-0.1,0-0.2-0.1-0.2-0.3s0.1-0.2,0.2-0.2c0,0,0.1,0,0.1,0c0.8,0,1.6-0.1,2.4-0.2
					c0.6-0.1,1.1-0.2,1.6-0.4c0.1,0,0.3,0,0.3,0.2c0,0.1,0,0.3-0.2,0.3c-0.5,0.2-1.1,0.3-1.7,0.4
					C1401.4,41.1,1400.6,41.1,1399.7,41.1z"/>
			</g>
			<g>
				<path class="st7" d="M1346.3,111.2c-0.4,0-0.8-0.1-1.1-0.3c-0.9-0.6-1.2-1.8-0.6-2.8c8.5-13,23.2-13,30.2-13.1l0.6,0
					c1.5,0,3,0,4.7,0c11,0.2,24.7,0.4,29.5-9.6c3.2-6.6,0.8-14.9-5.3-18.8c-0.9-0.6-1.2-1.8-0.6-2.8c0.6-0.9,1.8-1.2,2.8-0.6
					c7.8,5,10.8,15.5,6.8,23.9c-5.9,12.3-21.7,12.1-33.2,11.9c-1.6,0-3.1,0-4.6,0l-0.6,0c-6.4,0-19.6,0.1-26.9,11.2
					C1347.6,110.9,1347,111.2,1346.3,111.2z"/>
			</g>
			<g>
				<path class="st7" d="M1467.5,40.2c-0.5,0-1-0.2-1.3-0.5c-0.8-0.7-0.9-2-0.1-2.8c1.2-1.3,1.1-4.1,0.5-6.1
					c-0.6-2.1-2.1-4.3-3.7-6.6c-3.4-4.9-7.6-11-2.1-17.5c3.3-3.9,9.2-5.1,13.8-2.8c1,0.5,1.4,1.7,0.9,2.7c-0.5,1-1.7,1.4-2.7,0.9
					c-2.9-1.5-6.9-0.6-9,1.8c-3.3,4-1.3,7.4,2.4,12.7c1.7,2.5,3.5,5.1,4.2,7.8c0.9,3.1,1,7.3-1.4,9.9
					C1468.6,39.9,1468.1,40.2,1467.5,40.2z"/>
			</g>
			<g>
				<path class="st13" d="M1477.5,109.7c-1.6,29.5-42.6,53.1-93,53.1s-91.3-23.5-93-52.9L1477.5,109.7L1477.5,109.7z"/>
			</g>
			<g>
				<path class="st13" d="M1294.8,113.9h-19.6v6.1h19.6V113.9z"/>
			</g>
			<g>
				<path class="st14" d="M1455.9,169.5H1203c0.1-0.1,0.2-0.2,0.3-0.2c9.2-6.1,17.2-12.1,24.7-17.7c24.5-18.5,43.8-32.9,84.6-33.6
					c1.1,0,2.2,0,3.3,0c0.2,0,0.4,0,0.6,0c1.7,0,3.5,0.1,5.2,0.2C1375.9,121,1429.5,163.9,1455.9,169.5L1455.9,169.5z"/>
			</g>
			<g>
				<path class="st15" d="M1321.7,118c-4.1,1.4-8,3-11.8,4.7c-7.7,3.4-14.9,7.5-21.5,12c-7.2,4.9-13.5,10.3-19,16.3
					c-3.8,4.1-7.1,8.5-9.9,13c-1.1,1.8-2.1,3.5-3,5.3c0,0.1-0.1,0.2-0.1,0.2h-28.5c0.1-0.1,0.1-0.2,0.2-0.2c2.5-3.3,5.2-6.5,8.1-9.7
					c1.1-1.2,2.2-2.4,3.4-3.5c1-1,2-1.9,3-2.9c16.2-15,37.9-27.3,62-33.7c2.6-0.7,5.3-1.4,8.1-1.6c1.3-0.1,2.6-0.1,3.9,0
					C1318.3,117.9,1320,117.9,1321.7,118z"/>
			</g>
			<g>
				<path class="st16" d="M1066.6,82.6h-34.4v82h34.4V82.6z"/>
			</g>
			<g>
				<path class="st15" d="M1052.5,86.9h-16.2v21.9h16.2V86.9z"/>
			</g>
			<g>
				<path class="st15" d="M1052.5,112.6h-16.2v21.9h16.2V112.6z"/>
			</g>
			<g>
				<path class="st17" d="M1142.1,142.9v26.7H1108v0h-9.4v-26.5h-17.5v-15.9h43.9l0.3,0.3l16.6,15.4H1142.1z"/>
			</g>
			<g>
				<path class="st14" d="M1098.8,143v26.7h-34.1V143h0.1l16.9-15.7l16.9,15.7H1098.8z"/>
			</g>
			<g>
				<path class="st15" d="M1087.2,148.4V143h-5.1v5.4H1087.2z"/>
			</g>
			<g>
				<path class="st15" d="M1081.3,148.4V143h-5.1v5.4H1081.3z"/>
			</g>
			<g>
				<path class="st3" d="M1142.1,143h-43.4v26.7h43.4V143z"/>
			</g>
			<g>
				<path class="st3" d="M968.1,133h-19.9v35.5h19.9V133z"/>
			</g>
			<g>
				<path class="st6" d="M974.2,168.6h-392c62.8-32.1,88.1-62,175-62S931.8,161.6,974.2,168.6L974.2,168.6z"/>
			</g>
			<g>
				<path class="st3" d="M947.8,117.6V168h-45.6v-35.6l14-14.8H947.8z"/>
			</g>
			<g>
				<path class="st15" d="M921.7,147.6h-6.2V165h6.2V147.6z"/>
			</g>
			<g>
				<path class="st15" d="M935.6,137.8h-6.2v17.4h6.2V137.8z"/>
			</g>
			<g>
				<path class="st17" d="M1005.7,133.3V163h-9.5v0h-10.4v-29.4h-19.4V116h20.4l0.3,0.3l18.4,17.1H1005.7z"/>
			</g>
			<g>
				<path class="st14" d="M985.5,134.3V169h-37.8v-34.7h0.1l18.8-17.4l18.8,17.4H985.5z"/>
			</g>
			<g>
				<path class="st15" d="M973.1,139.4v-6h-5.6v6H973.1z"/>
			</g>
			<g>
				<path class="st15" d="M966.6,139.4v-6h-5.6v6H966.6z"/>
			</g>
			<g>
				<path class="st12" d="M957.2,169.5h89.7c0-14.8-14.3-26.8-31.9-26.8c-11.3,0-21.2,4.9-26.8,12.3c-3.1-1.6-6.7-2.5-10.6-2.5
					C966.3,152.5,957.2,160.1,957.2,169.5L957.2,169.5z"/>
			</g>
			<g>
				<path class="st17" d="M1068.6,127.8v7.3h-5.7v0h-6.2v-7.2h-11.6v-4.3h12.2l0.2,0.1L1068.6,127.8L1068.6,127.8z"/>
			</g>
			<g>
				<path class="st14" d="M1056.8,127.8v42.4h-22.6v-42.4h0.1l11.2-4.3L1056.8,127.8L1056.8,127.8z"/>
			</g>
			<g>
				<path class="st3" d="M1068.6,170.2l-11.9-0.3V128h11.9V170.2z"/>
			</g>
			<g>
				<path class="st15" d="M1049.5,144.5v-10.9h-8v10.9H1049.5z"/>
			</g>
			<g>
				<path class="st14" d="M234.2,168.6h404c-0.2-0.1-0.4-0.2-0.5-0.2c-14.7-6.1-27.5-12.2-39.4-17.9
					c-39.2-18.6-69.9-33.1-135.2-33.9c-1.7,0-3.5,0-5.3,0c-0.3,0-0.7,0-1,0c-2.8,0-5.5,0.1-8.3,0.2
					C362,119.7,276.4,162.9,234.2,168.6L234.2,168.6z"/>
			</g>
			<g>
				<path class="st15" d="M448.2,116.8c6.5,1.4,12.7,3,18.8,4.7c12.2,3.5,23.9,7.5,34.4,12c11.5,4.9,21.6,10.4,30.4,16.4
					c6.1,4.1,11.3,8.5,15.8,13c1.7,1.8,3.4,3.5,4.9,5.4c0.1,0.1,0.1,0.2,0.2,0.2h45.6c-0.1-0.1-0.2-0.2-0.3-0.2
					c-3.9-3.3-8.2-6.6-12.9-9.7c-1.7-1.2-3.6-2.4-5.5-3.5c-1.6-1-3.2-1.9-4.8-2.9c-25.9-15-60.5-27.4-99.1-33.9
					c-4.2-0.7-8.5-1.4-12.9-1.7c-2.1-0.1-4.1-0.1-6.2,0C453.7,116.6,451,116.7,448.2,116.8z"/>
			</g>
			<g>
				<path class="st6" d="M358.2,169.6H3.2c56.9-23.8,79.8-46,158.5-46C240.4,123.6,319.8,164.4,358.2,169.6L358.2,169.6z"/>
			</g>
			<g>
				<path class="st3" d="M55,103.5V163H1.2v-42l16.5-17.4H55z"/>
			</g>
			<g>
				<path class="st15" d="M24.2,138.9h-7.3v20.6h7.3V138.9z"/>
			</g>
			<g>
				<path class="st15" d="M40.6,127.4h-7.3V148h7.3V127.4z"/>
			</g>
			<g>
				<path class="st17" d="M118,121.1v35h-11.2V156H94.5v-34.7H71.6v-20.8h24l0.4,0.4l21.7,20.1H118z"/>
			</g>
			<g>
				<path class="st14" d="M94.2,122.2v41H49.5v-41h0.2l22.2-20.5L94,122.2H94.2z"/>
			</g>
			<g>
				<path class="st15" d="M79.6,128.2v-7.1h-6.7v7.1H79.6z"/>
			</g>
			<g>
				<path class="st15" d="M71.9,128.2v-7.1h-6.7v7.1H71.9z"/>
			</g>
			<g>
				<path class="st12" d="M41.9,163.7h105.7c0-17.4-16.9-31.6-37.6-31.6c-13.3,0-24.9,5.8-31.6,14.5c-3.6-1.9-7.9-3-12.5-3
					C52.7,143.6,41.9,152.6,41.9,163.7L41.9,163.7z"/>
			</g>
			<g>
				<defs>
					<rect id="SVGID_00000147916163925940751860000000996147871787577766_" x="250.2" y="53.6" width="164" height="115"/>
				</defs>
				<clipPath id="SVGID_00000029745509345277922290000012870390490152654526_">
					<use xlink:href="#SVGID_00000147916163925940751860000000996147871787577766_"  style="overflow:visible;"/>
				</clipPath>
				<g style="clip-path:url(#SVGID_00000029745509345277922290000012870390490152654526_);">
					<g>
						<path class="st17" d="M284.6,126.2v7.3h-5.7v0h-6.2v-7.2h-11.6v-4.3h12.2l0.2,0.1L284.6,126.2L284.6,126.2z"/>
					</g>
					<g>
						<path class="st14" d="M272.8,126.2v42.4h-22.6v-42.4h0.1l11.2-4.3L272.8,126.2L272.8,126.2z"/>
					</g>
					<g>
						<path class="st3" d="M284.6,168.6l-11.9-0.3v-41.9h11.9V168.6z"/>
					</g>
					<g>
						<path class="st15" d="M265.5,142.9v-10.9h-8v10.9H265.5z"/>
					</g>
					<g>
						<path class="st16" d="M313.3,53.6h0.1v115h-34v-115h0.1"/>
					</g>
					<g>
						<path class="st15" d="M301.8,112.1v-5.5h-5.1v5.5H301.8z"/>
					</g>
					<g>
						<path class="st15" d="M295.9,112.1v-5.5h-5.1v5.5H295.9z"/>
					</g>
					<g>
						<path class="st15" d="M301.8,152.8v-5.5h-5.1v5.5H301.8z"/>
					</g>
					<g>
						<path class="st15" d="M295.9,152.8v-5.5h-5.1v5.5H295.9z"/>
					</g>
					<g>
						<path class="st15" d="M301.8,71.5V66h-5.1v5.5H301.8z"/>
					</g>
					<g>
						<path class="st15" d="M295.9,71.5V66h-5.1v5.5H295.9z"/>
					</g>
					<g>
						<path class="st19" d="M331.2,53.6h-17.9v115h17.9V53.6z"/>
					</g>
					<g>
						<path class="st20" d="M414.2,121.9v0.8l-1.2-0.8H414.2z"/>
					</g>
				</g>
			</g>
			<g>
				<path class="st6" d="M365,71.8c0,6.7-5.4,12.1-12.1,12.1s-12.1-5.4-12.1-12.1V42.7c0-6.7,5.4-12.1,12.1-12.1S365,36,365,42.7
					V71.8z"/>
			</g>
			<g>
				<path class="st21" d="M352.9,171.2c-0.3,0-0.6-0.3-0.6-0.6V54.2c0-0.3,0.3-0.6,0.6-0.6s0.6,0.3,0.6,0.6v116.4
					C353.5,170.9,353.2,171.2,352.9,171.2z"/>
			</g>
			<g>
				<path class="st21" d="M352.9,77.6c-0.2,0-0.3-0.1-0.4-0.2l-5.7-5.7c-0.2-0.2-0.2-0.6,0-0.9c0.2-0.2,0.6-0.2,0.9,0l5.7,5.7
					c0.2,0.2,0.2,0.6,0,0.9C353.2,77.5,353,77.6,352.9,77.6z"/>
			</g>
			<g>
				<path class="st21" d="M352.9,70.3c-0.2,0-0.3-0.1-0.4-0.2l-5.7-5.7c-0.2-0.2-0.2-0.6,0-0.9c0.2-0.2,0.6-0.2,0.9,0l5.7,5.7
					c0.2,0.2,0.2,0.6,0,0.9C353.2,70.3,353,70.3,352.9,70.3z"/>
			</g>
			<g>
				<path class="st21" d="M352.9,73.2c-0.2,0-0.3-0.1-0.4-0.2c-0.2-0.2-0.2-0.6,0-0.9l5.7-5.7c0.2-0.2,0.6-0.2,0.9,0
					c0.2,0.2,0.2,0.6,0,0.9l-5.7,5.7C353.2,73.1,353,73.2,352.9,73.2z"/>
			</g>
			<g>
				<path class="st21" d="M352.9,65.9c-0.2,0-0.3-0.1-0.4-0.2c-0.2-0.2-0.2-0.6,0-0.9l5.7-5.7c0.2-0.2,0.6-0.2,0.9,0
					c0.2,0.2,0.2,0.6,0,0.9l-5.7,5.7C353.2,65.9,353,65.9,352.9,65.9z"/>
			</g>
			<g>
				<path class="st21" d="M352.9,61c-0.2,0-0.3-0.1-0.4-0.2l-4.2-4.2c-0.2-0.2-0.2-0.6,0-0.9c0.2-0.2,0.6-0.2,0.9,0l4.2,4.2
					c0.2,0.2,0.2,0.6,0,0.9C353.2,60.9,353,61,352.9,61z"/>
			</g>
			<g>
				<path class="st22" d="M386.7,94.2h-71l10.1,71.7c0.4,3,2.3,5.6,5,7l0.4,0.2c1.4,0.7,2.8,1.1,4.4,1.1h31.3c1.6,0,3.2-0.4,4.5-1.2
					c2.6-1.4,4.3-4,4.8-6.9L386.7,94.2L386.7,94.2z"/>
			</g>
			<g>
				<path class="st23" d="M326.2,86.6v-46h5v46"/>
			</g>
			<g>
				<path class="st24" d="M313.2,72.9l0.6,5.5l1.8,15.8h71l1.8-15.8l0.6-5.5H313.2z"/>
			</g>
			<g>
				<path class="st25" d="M313.2,72.9l0.6,5.5h74.7l0.6-5.5H313.2z"/>
			</g>
			<g>
				<g>
					<path class="st26" d="M356.9,118.6l8-6.7c0.7-0.6,1.8-0.5,2.4,0.2l6.7,8.1c0.6,0.7,0.5,1.8-0.2,2.4l-8,6.7
						c-0.7,0.6-1.8,0.5-2.4-0.2l-6.7-8.1C356.1,120.3,356.2,119.2,356.9,118.6z"/>
				</g>
			</g>
			<g>
				<g>
					<path class="st26" d="M345.4,124.8l10.2,2.1c0.9,0.2,1.5,1.1,1.3,2l-2.1,10.3c-0.2,0.9-1.1,1.5-2,1.3l-10.2-2.1
						c-0.9-0.2-1.5-1.1-1.3-2l2.1-10.3C343.5,125.2,344.4,124.6,345.4,124.8z"/>
				</g>
			</g>
			<g>
				<g>
					<path class="st26" d="M358.8,140.4l10.2-2.4c0.9-0.2,1.8,0.4,2,1.3l2.4,10.3c0.2,0.9-0.4,1.8-1.3,2l-10.2,2.4
						c-0.9,0.2-1.8-0.4-2-1.3l-2.4-10.3C357.3,141.6,357.8,140.6,358.8,140.4z"/>
				</g>
			</g>
			<g>
				<g>
					<path class="st26" d="M334,111.9l7.6,7.1c0.7,0.6,0.7,1.7,0.1,2.4l-7.2,7.7c-0.6,0.7-1.7,0.7-2.4,0.1l-7.6-7.1
						c-0.7-0.6-0.7-1.7-0.1-2.4l7.2-7.7C332.3,111.3,333.3,111.3,334,111.9z"/>
				</g>
			</g>
			<g>
				<g>
					<path class="st26" d="M339.2,141.7l7.6,7.1c0.7,0.6,0.7,1.7,0.1,2.4l-7.2,7.7c-0.6,0.7-1.7,0.7-2.4,0.1l-7.6-7.1
						c-0.7-0.6-0.7-1.7-0.1-2.4l7.2-7.7C337.5,141.1,338.5,141.1,339.2,141.7z"/>
				</g>
			</g>
			<g>
				<g>
					<path class="st26" d="M351,156l10.4,0.8c0.9,0.1,1.6,0.9,1.6,1.8l-0.8,10.5c-0.1,0.9-0.9,1.6-1.8,1.6l-10.4-0.8
						c-0.9-0.1-1.6-0.9-1.6-1.8l0.8-10.5C349.2,156.7,350,156,351,156z"/>
				</g>
			</g>
			<g>
				<path class="st12" d="M427.2,174.3c0-4.7-4-8.5-8.9-8.5c-4.9,0-8.8,3.8-8.8,8.5H427.2z"/>
			</g>
			<g>
				<path class="st12" d="M343,174.5h64.3c0-12.2-10.2-22-22.9-22c-8.1,0-15.2,4-19.2,10.1c-2.2-1.3-4.8-2.1-7.6-2.1
					C349.6,160.5,343,166.8,343,174.5z"/>
			</g>
			<g>
				<path class="st12" d="M367.8,79.4c0-6.6,5.4-12,12-12c6.6,0,12,5.4,12,12v26.8c0,6.6-5.4,12-12,12c-6.6,0-12-5.4-12-12V79.4z"/>
			</g>
			<g>
				<path class="st7" d="M379.8,174c-0.3,0-0.6-0.3-0.6-0.6V89.9c0-0.3,0.3-0.6,0.6-0.6s0.6,0.3,0.6,0.6v83.6
					C380.4,173.8,380.1,174,379.8,174z"/>
			</g>
			<g>
				<path class="st7" d="M379.8,112.3c-0.2,0-0.3-0.1-0.4-0.2c-0.2-0.2-0.2-0.6,0-0.9l5.7-5.5c0.2-0.2,0.6-0.2,0.9,0
					c0.2,0.2,0.2,0.6,0,0.9l-5.7,5.5C380.1,112.2,379.9,112.3,379.8,112.3z"/>
			</g>
			<g>
				<path class="st7" d="M379.8,105.3c-0.2,0-0.3-0.1-0.4-0.2c-0.2-0.2-0.2-0.6,0-0.9l5.7-5.5c0.2-0.2,0.6-0.2,0.9,0
					c0.2,0.2,0.2,0.6,0,0.9l-5.7,5.5C380.1,105.3,379.9,105.3,379.8,105.3z"/>
			</g>
			<g>
				<path class="st7" d="M379.8,108.1c-0.2,0-0.3-0.1-0.4-0.2l-5.7-5.5c-0.2-0.2-0.3-0.6,0-0.9c0.2-0.2,0.6-0.3,0.9,0l5.7,5.5
					c0.2,0.2,0.3,0.6,0,0.9C380.1,108,379.9,108.1,379.8,108.1z"/>
			</g>
			<g>
				<path class="st7" d="M379.8,101.1c-0.2,0-0.3-0.1-0.4-0.2l-5.7-5.5c-0.2-0.2-0.3-0.6,0-0.9c0.2-0.2,0.6-0.3,0.9,0l5.7,5.5
					c0.2,0.2,0.3,0.6,0,0.9C380.1,101.1,379.9,101.1,379.8,101.1z"/>
			</g>
			<g>
				<path class="st7" d="M379.8,96.4c-0.2,0-0.3-0.1-0.4-0.2c-0.2-0.2-0.2-0.6,0-0.9l4.2-4c0.2-0.2,0.6-0.2,0.9,0
					c0.2,0.2,0.2,0.6,0,0.9l-4.2,4C380.1,96.3,379.9,96.4,379.8,96.4z"/>
			</g>
		</g>
	</g>
</g>
<g id="Layer_2">
</g>
</svg>
